<?xml version="1.0" encoding="UTF-8"?>
<svg width="72px" height="72px" viewBox="0 0 72 72" version="1.1" xmlns="http://www.w3.org/2000/svg" xmlns:xlink="http://www.w3.org/1999/xlink">
    <!-- Generator: sketchtool 61.2 (101010) - https://sketch.com -->
    <title>837365D2-84CC-4040-A404-9348258AF741</title>
    <desc>Created with sketchtool.</desc>
    <defs>
        <polygon id="path-1" points="0.778870588 0.827246512 6.71844706 0.827246512 6.71844706 6.69767442 0.778870588 6.69767442"></polygon>
    </defs>
    <g id="Version-5" stroke="none" stroke-width="1" fill="none" fill-rule="evenodd">
        <g id="Drop-off-Page" transform="translate(-124.000000, -62.000000)">
            <g id="Group-2" transform="translate(124.000000, 62.000000)">
                <g id="Group-40">
                    <path d="M23.0135718,28.6638698 C23.0135718,22.8461023 18.2412424,18.1292651 12.3558776,18.1292651 C6.46966588,18.1292651 1.69733647,22.8461023 1.69733647,28.6638698 C1.69733647,34.4816372 6.46966588,39.1976372 12.3558776,39.1976372 C18.2412424,39.1976372 23.0135718,34.4816372 23.0135718,28.6638698" id="Fill-1" fill="#DCE1E6"></path>
                    <path d="M68.1252141,16.3656837 C68.1252141,14.3823349 66.4988612,12.774893 64.4921788,12.774893 C62.4863435,12.774893 60.8591435,14.3823349 60.8591435,16.3656837 C60.8591435,18.3481953 62.4863435,19.9564744 64.4921788,19.9564744 C66.4988612,19.9564744 68.1252141,18.3481953 68.1252141,16.3656837" id="Fill-3" fill="#DCE1E6"></path>
                    <path d="M18.3754165,6.9495907 C18.3754165,4.75275349 16.5728753,2.9720093 14.3501929,2.9720093 C12.1275106,2.9720093 10.3258165,4.75275349 10.3258165,6.9495907 C10.3258165,9.14642791 12.1275106,10.9271721 14.3501929,10.9271721 C16.5728753,10.9271721 18.3754165,9.14642791 18.3754165,6.9495907" id="Fill-5" fill="#DCE1E6"></path>
                    <g id="Group-9" transform="translate(64.376471, 64.828214)">
                        <mask id="mask-2" fill="white">
                            <use xlink:href="#path-1"></use>
                        </mask>
                        <g id="Clip-8"></g>
                        <path d="M6.71844706,3.76250233 C6.71844706,2.14082791 5.38941176,0.827246512 3.74865882,0.827246512 C2.10875294,0.827246512 0.778870588,2.14082791 0.778870588,3.76250233 C0.778870588,5.38417674 2.10875294,6.69775814 3.74865882,6.69775814 C5.38941176,6.69775814 6.71844706,5.38417674 6.71844706,3.76250233" id="Fill-7" fill="#DCE1E6" mask="url(#mask-2)"></path>
                    </g>
                    <path d="M5.25015529,55.5640744 C5.25015529,54.1307721 4.07443765,52.9687256 2.62512,52.9687256 C1.17495529,52.9687256 8.47058824e-05,54.1307721 8.47058824e-05,55.5640744 C8.47058824e-05,56.9973767 1.17495529,58.158586 2.62512,58.158586 C4.07443765,58.158586 5.25015529,56.9973767 5.25015529,55.5640744" id="Fill-10" fill="#DCE1E6"></path>
                    <path d="M71.6507576,44.9591442 C71.6507576,43.9310512 70.8079341,43.0980279 69.7677459,43.0980279 C68.7284047,43.0980279 67.8864282,43.9310512 67.8864282,44.9591442 C67.8864282,45.9864 68.7284047,46.8194233 69.7677459,46.8194233 C70.8079341,46.8194233 71.6507576,45.9864 71.6507576,44.9591442" id="Fill-12" fill="#DCE1E6"></path>
                    <path d="M28.3804518,1.86086512 C28.3804518,0.832772093 27.5376282,-0.000251162791 26.49744,-0.000251162791 C25.4580988,-0.000251162791 24.6161224,0.832772093 24.6161224,1.86086512 C24.6161224,2.88812093 25.4580988,3.72114419 26.49744,3.72114419 C27.5376282,3.72114419 28.3804518,2.88812093 28.3804518,1.86086512" id="Fill-14" fill="#DCE1E6"></path>
                    <path d="M59.3808565,25.7082698 L55.9240094,25.7082698 L16.4146447,25.7082698 L12.9577976,25.7082698 C9.93379765,25.7082698 7.48156235,28.1319907 7.48156235,31.1208279 L7.48156235,59.6386884 C7.48156235,62.6283628 9.93379765,65.0512465 12.9577976,65.0512465 L59.3808565,65.0512465 C62.4048565,65.0512465 64.8570918,62.6283628 64.8570918,59.6386884 L64.8570918,31.1208279 C64.8570918,28.1319907 62.4048565,25.7082698 59.3808565,25.7082698 Z" id="Stroke-18" stroke="#ED1164" stroke-width="3" fill="#FFFFFF" stroke-linecap="round" stroke-linejoin="round"></path>
                    <path d="M11.7454024,34.9690605 L33.9358024,52.3562233 C35.2309553,53.3575256 37.1088847,53.3566884 38.4031906,52.3562233 L60.5935906,35.1892465" id="Stroke-24" stroke="#ED1164" stroke-width="3" stroke-linecap="round" stroke-linejoin="round"></path>
                    <line x1="22.0945129" y1="47.700586" x2="11.9247247" y2="55.7913767" id="Stroke-26" stroke="#ED1164" stroke-width="3" stroke-linecap="round" stroke-linejoin="round"></line>
                    <line x1="50.2443953" y1="47.700586" x2="60.4150306" y2="55.7913767" id="Stroke-28" stroke="#ED1164" stroke-width="3" stroke-linecap="round" stroke-linejoin="round"></line>
                </g>
                <rect id="Rectangle" fill="#FFFFFF" x="23.7176471" y="9.20930233" width="25.4117647" height="28.4651163"></rect>
                <line x1="22.8705882" y1="15.9069767" x2="50.4" y2="15.9069767" id="Path-8" stroke="#ED1164" stroke-width="3"></line>
                <path d="M50.4,42.7704752 L50.4,13.372093 C50.4,10.6106693 48.1614237,8.37209302 45.4,8.37209302 L27.8705882,8.37209302 C25.1091645,8.37209302 22.8705882,10.6106693 22.8705882,13.372093 L22.8705882,43.5348837 L22.8705882,43.5348837" id="Path-7" stroke="#ED1164" stroke-width="3" stroke-linecap="round" stroke-linejoin="round"></path>
                <line x1="34.7294118" y1="12.1395349" x2="38.1176471" y2="12.1395349" id="Path-8-Copy" stroke="#ED1164" stroke-linecap="round"></line>
            </g>
        </g>
    </g>
</svg>